<svg viewBox="0 0 345.0841 184.9996" width="5000px" height="2680.5002000403974px" xmlns="http://www.w3.org/2000/svg" xmlns:xlink="http://www.w3.org/1999/xlink" preserveAspectRatio="none"><defs></defs><style>.aD6z1nYkhcolor {fill:#FFFFFF;fill-opacity:1;}.aYFvy5Lsg1colors-0 {fill:#FFFFFF;fill-opacity:1;}</style><g opacity="1" transform="rotate(0 124.5317 0)">
<svg width="96.0207" height="100" x="124.5317" y="0" version="1.1" preserveAspectRatio="none" viewBox="48.644744873046875 40.2610969543457 402.7483215332031 419.4388732910156">
  <g transform="matrix(1 0 0 1 0 0)" class="aYFvy5Lsg1colors-0"><g><path d="M107.6,282c19,14.8,39.7,22.4,60.2,22.4c3.9,0,7.8-0.3,11.7-0.9c12.7-47-10.9-84.8-35.9-124.7   c-24.3-38.8-49.2-78.9-41.8-128.9C82.5,60.1,67.3,78,58,102c-11.3,29.1-12.4,63.8-3.1,97.7C64.2,233.5,82.9,262.7,107.6,282z"></path><path d="M164.1,165.9c24.3,38.8,49.2,78.9,41.8,128.9c19.3-10.2,34.6-28.2,43.8-52.1c11.3-29.1,12.4-63.8,3.1-97.7   c-9.3-33.9-28-63.1-52.7-82.3c-22.6-17.6-47.8-25.1-72-21.6C115.5,88.2,139.1,126,164.1,165.9z"></path><path d="M232.7,380.2c4.6,29.1,18.7,52.2,39.7,66c39.4-26.8,48-70.5,57-116.8c8.7-44.8,17.7-91,55.3-123.3   c-47.4-11.2-104.3,20.3-134.5,78C234,315.2,227.8,349.3,232.7,380.2z"></path><path d="M353.2,334c-8.7,44.9-17.7,91.1-55.4,123.3c6.5,1.6,13.2,2.4,20,2.4c14.8,0,30.3-3.7,45.6-11.1   c28.2-13.6,52.6-38.2,68.9-69.3c32.6-62.3,22.3-132.9-22.1-162.1C370.8,244,362.2,287.7,353.2,334z"></path></g></g>
</svg>
</g><g opacity="1" transform="rotate(0 0 118)">
<svg width="345.0841" height="66.9996" x="0" y="118" version="1.1" preserveAspectRatio="none" viewBox="2.8711 -28.8281 191.83589999999998 37.2461">
  <g transform="matrix(1 0 0 1 0 0)" class="aD6z1nYkhcolor"><path d="M20.68-13.54L20.68-3.30Q19.26-1.46 17.09-0.54Q14.92 0.39 12.34 0.39L12.34 0.39Q7.97 0.39 5.47-2.54Q2.97-5.47 2.87-10.66L2.87-10.66L2.87-17.58Q2.87-23.03 5.24-25.93Q7.62-28.83 12.01-28.83L12.01-28.83Q15.94-28.83 18.16-26.66Q20.39-24.49 20.66-20.41L20.66-20.41L18.44-20.41Q18.09-23.69 16.51-25.21Q14.94-26.72 12.03-26.72L12.03-26.72Q8.55-26.72 6.83-24.40Q5.10-22.09 5.10-17.62L5.10-17.62L5.10-11.05Q5.10-6.60 7.00-4.14Q8.91-1.68 12.34-1.68L12.34-1.68Q16.07-1.68 18.44-4.04L18.44-4.04L18.44-11.45L12.21-11.45L12.21-13.54L20.68-13.54Z M29.04-21.13L29.04 0L26.86 0L26.86-21.13L29.04-21.13ZM26.54-27.23L26.54-27.23Q26.54-27.89 26.91-28.36Q27.29-28.83 27.97-28.83Q28.65-28.83 29.03-28.36Q29.41-27.89 29.41-27.23Q29.41-26.56 29.03-26.10Q28.65-25.64 27.97-25.64Q27.29-25.64 26.91-26.10Q26.54-26.56 26.54-27.23Z M35.04-21.13L37.11-21.13L37.17-17.77Q38.11-19.49 39.56-20.51Q41.02-21.52 42.87-21.52L42.87-21.52Q48.40-21.52 48.54-14.16L48.54-14.16L48.54 0L46.39 0L46.39-13.93Q46.37-16.76 45.39-18.11Q44.41-19.45 42.32-19.45L42.32-19.45Q40.63-19.45 39.27-18.17Q37.91-16.89 37.21-14.67L37.21-14.67L37.21 0L35.04 0L35.04-21.13Z M53.54-9.26L53.54-11.54Q53.54-16.54 55.25-19.03Q56.97-21.52 60.41-21.52L60.41-21.52Q64.06-21.52 65.84-18.18L65.84-18.18L65.96-21.13L67.97-21.13L67.97 0.61Q67.95 4.43 66.14 6.43Q64.34 8.42 60.88 8.42L60.88 8.42Q59.14 8.42 57.37 7.57Q55.61 6.72 54.69 5.49L54.69 5.49L55.70 3.93Q57.87 6.41 60.72 6.41L60.72 6.41Q63.36 6.41 64.56 5Q65.76 3.59 65.78 0.72L65.78 0.72L65.78-2.64Q64.00 0.39 60.39 0.39L60.39 0.39Q57.09 0.39 55.34-2.09Q53.59-4.57 53.54-9.26L53.54-9.26ZM55.72-11.68L55.72-9.57Q55.72-5.51 56.95-3.59Q58.18-1.68 60.82-1.68L60.82-1.68Q64.34-1.68 65.78-5.02L65.78-5.02L65.78-15.82Q64.32-19.43 60.86-19.43L60.86-19.43Q58.20-19.43 56.97-17.54Q55.74-15.64 55.72-11.68L55.72-11.68Z M80.72 0.39L80.72 0.39Q76.99 0.39 74.88-2.05Q72.77-4.49 72.73-9.00L72.73-9.00L72.73-11.58Q72.73-16.23 74.77-18.88Q76.80-21.52 80.35-21.52L80.35-21.52Q83.79-21.52 85.60-19.28Q87.40-17.03 87.44-12.40L87.44-12.40L87.44-10.37L74.88-10.37L74.88-9.18Q74.88-5.55 76.44-3.57Q77.99-1.60 80.82-1.60L80.82-1.60Q83.95-1.60 85.88-3.89L85.88-3.89L87.01-2.44Q84.94 0.39 80.72 0.39ZM80.35-19.49L80.35-19.49Q77.79-19.49 76.42-17.69Q75.04-15.88 74.90-12.40L74.90-12.40L85.27-12.40L85.27-12.97Q85.12-19.49 80.35-19.49Z M100.37-21.27L100.33-19.10Q99.55-19.24 98.96-19.24L98.96-19.24Q97.17-19.24 95.95-18.01Q94.73-16.78 94.22-14.59L94.22-14.59L94.22 0L92.05 0L92.05-21.13L94.18-21.13L94.22-17.97Q95.76-21.52 99.06-21.52L99.06-21.52Q99.92-21.52 100.37-21.27L100.37-21.27Z M112.64 0L104.61 0L104.61-28.44L111.82-28.44Q115.66-28.44 117.65-26.55Q119.63-24.67 119.63-21.00L119.63-21.00Q119.63-18.81 118.61-17.19Q117.60-15.57 115.80-14.84L115.80-14.84Q117.87-14.32 119.15-12.43Q120.43-10.55 120.43-8.01L120.43-8.01Q120.43-4.30 118.40-2.15Q116.37 0 112.64 0L112.64 0ZM113.07-13.65L106.84-13.65L106.84-2.07L112.73-2.07Q115.27-2.07 116.74-3.63Q118.20-5.20 118.20-7.97L118.20-7.97Q118.20-10.55 116.85-12.07Q115.49-13.59 113.07-13.65L113.07-13.65ZM106.84-26.33L106.84-15.70L112.01-15.70Q114.55-15.70 115.96-17.05Q117.36-18.40 117.36-21.05L117.36-21.05Q117.36-23.77 115.99-25.05Q114.61-26.33 111.82-26.33L111.82-26.33L106.84-26.33Z M132.54 0.39L132.54 0.39Q128.81 0.39 126.70-2.05Q124.59-4.49 124.55-9.00L124.55-9.00L124.55-11.58Q124.55-16.23 126.58-18.88Q128.61-21.52 132.17-21.52L132.17-21.52Q135.61-21.52 137.41-19.28Q139.22-17.03 139.26-12.40L139.26-12.40L139.26-10.37L126.70-10.37L126.70-9.18Q126.70-5.55 128.25-3.57Q129.80-1.60 132.64-1.60L132.64-1.60Q135.76-1.60 137.70-3.89L137.70-3.89L138.83-2.44Q136.76 0.39 132.54 0.39ZM132.17-19.49L132.17-19.49Q129.61-19.49 128.23-17.69Q126.86-15.88 126.72-12.40L126.72-12.40L137.09-12.40L137.09-12.97Q136.93-19.49 132.17-19.49Z M157.34 0L155.04 0Q154.75-1.02 154.65-2.93L154.65-2.93Q153.67-1.35 152.14-0.48Q150.61 0.39 148.81 0.39L148.81 0.39Q146.07 0.39 144.55-1.15Q143.03-2.70 143.03-5.55L143.03-5.55Q143.03-8.65 145.15-10.47Q147.27-12.29 151.00-12.30L151.00-12.30L154.63-12.30L154.63-15.25Q154.63-17.52 153.51-18.51Q152.38-19.49 150.21-19.49L150.21-19.49Q148.20-19.49 146.91-18.32Q145.63-17.15 145.63-15.29L145.63-15.29L143.46-15.31Q143.46-17.91 145.41-19.72Q147.36-21.52 150.31-21.52L150.31-21.52Q153.50-21.52 155.14-19.92Q156.78-18.32 156.78-15.25L156.78-15.25L156.78-4.88Q156.78-1.78 157.34-0.23L157.34-0.23L157.34 0ZM149.08-1.70L149.08-1.70Q151.00-1.70 152.47-2.70Q153.95-3.69 154.63-5.35L154.63-5.35L154.63-10.49L151.19-10.49Q148.22-10.45 146.72-9.17Q145.21-7.89 145.21-5.72L145.21-5.72Q145.21-1.70 149.08-1.70Z M162.70-21.13L164.77-21.13L164.82-17.77Q165.76-19.49 167.22-20.51Q168.67-21.52 170.53-21.52L170.53-21.52Q176.05-21.52 176.19-14.16L176.19-14.16L176.19 0L174.04 0L174.04-13.93Q174.02-16.76 173.05-18.11Q172.07-19.45 169.98-19.45L169.98-19.45Q168.28-19.45 166.92-18.17Q165.57-16.89 164.86-14.67L164.86-14.67L164.86 0L162.70 0L162.70-21.13Z M192.52-5.20L192.52-5.20Q192.52-6.56 191.39-7.59Q190.25-8.61 187.55-9.83Q184.84-11.05 183.77-11.87Q182.70-12.68 182.19-13.63Q181.68-14.59 181.68-15.90L181.68-15.90Q181.68-18.34 183.44-19.93Q185.20-21.52 187.99-21.52L187.99-21.52Q191.00-21.52 192.79-19.82Q194.59-18.13 194.59-15.33L194.59-15.33L192.42-15.33Q192.42-17.13 191.19-18.31Q189.96-19.49 187.99-19.49L187.99-19.49Q186.07-19.49 184.95-18.52Q183.83-17.54 183.83-15.98L183.83-15.98Q183.83-14.71 184.69-13.91Q185.55-13.11 188.40-11.74L188.40-11.74Q191.35-10.45 192.46-9.61Q193.57-8.77 194.14-7.74Q194.71-6.72 194.71-5.31L194.71-5.31Q194.71-2.70 192.89-1.15Q191.07 0.39 188.11 0.39L188.11 0.39Q184.96 0.39 183.02-1.33Q181.07-3.05 181.07-5.76L181.07-5.76L183.26-5.76Q183.36-3.79 184.58-2.71Q185.80-1.62 188.11-1.62L188.11-1.62Q190.10-1.62 191.31-2.60Q192.52-3.57 192.52-5.20Z"></path></g>
</svg>
</g></svg>